<?xml version="1.0" encoding="UTF-8"?>
<svg xmlns="http://www.w3.org/2000/svg" version="1.1" viewBox="0 0 24 24">
  <defs>
    <style>
      .cls-1 {
        fill: #388e20;
      }

      .cls-1, .cls-2, .cls-3 {
        stroke-width: 0px;
      }

      .cls-2 {
        fill: #33b55e;
      }

      .cls-3 {
        fill: #fff;
      }
    </style>
  </defs>
  <g id="Layer_2" data-name="Layer 2">
    <rect class="cls-3" width="24" height="24"/>
  </g>
  <g id="Layer_1" data-name="Layer 1">
    <g>
      <path class="cls-2" d="M22.1,17.8c0,.3,0,.5-.1,1,0,.4-.2.7-.3.9-.2.5-.8,1-1.7,1.6-.9.5-1.8.7-2.7.7h-.8c-.2,0-.5-.2-.8-.2-.3,0-.5-.2-.7-.3-.1,0-.4,0-.8-.3s-.6-.2-.7-.3c-.9-.3-1.8-.7-2.5-1.2-1.2-.7-2.5-1.7-3.8-3-1.3-1.4-2.3-2.6-3.1-3.8-.5-.7-.9-1.6-1.2-2.5,0,0-.1-.4-.3-.7-.1-.4-.2-.6-.3-.8,0,0-.1-.4-.2-.6s-.1-.5-.2-.8c0-.3,0-.5,0-.7,0-.9.2-1.8.7-2.6.5-1,1-1.6,1.5-1.8.2,0,.6-.2,1-.3.4,0,.8,0,1,0h.3c.2,0,.4.5.8,1.1.1.2.2.5.4.7.2.4.3.6.5.9.2.3.3.5.4.8,0,0,.1,0,.2.4.1.2.2.4.3.5,0,.2,0,.3,0,.5s-.1.4-.4.7c-.3.3-.6.5-.9.7-.3.3-.6.5-.9.7-.3.3-.4.5-.4.7s0,.2,0,.3c0,.2,0,.3.1.3,0,0,.1.2.2.4.1.2.2.3.2.3.7,1.3,1.6,2.5,2.5,3.4.9.9,2,1.7,3.4,2.5,0,0,.1,0,.3.2s.3.2.3.2.2,0,.3,0c.1,0,.2,0,.3,0,.2,0,.4,0,.7-.4s.5-.5.8-.9c.2-.3.5-.6.8-.9.3-.3.5-.4.7-.4s.3,0,.4,0c.1,0,.3.2.5.3.2.2.3.3.4.3.2.2.5.3.8.5.3.2.6.3.9.5s.6.4.8.5c.7.4,1,.6,1.1.7,0,0,0,.2,0,.4"/>
      <path class="cls-1" d="M2.2,5.4c-.1.5-.2.9-.2,1.4s0,.5,0,.7c0,.2,0,.5.2.8,0,.3.2.5.2.7,0,.1.2.4.3.8.1.4.2.6.3.7.3.9.7,1.8,1.2,2.5.8,1.2,1.8,2.5,3.1,3.8,1.3,1.3,2.5,2.3,3.8,3.1.7.5,1.6.9,2.5,1.2,0,0,.3.1.7.3.4.1.7.2.8.3.2,0,.4.1.7.2s.6.2.8.2c.2,0,.5,0,.8,0,.9,0,1.8-.2,2.7-.7,1-.5,1.5-1,1.7-1.5.1-.2.2-.6.3-1,0-.4.1-.8.1-1s0-.2,0-.3c0-.1-.2-.2-.5-.4-.2.5-.8.9-1.7,1.4-.9.5-1.8.7-2.7.7s-.5,0-.8,0c-.2,0-.5,0-.8-.2s-.5-.2-.7-.2c-.1,0-.4-.2-.8-.3-.4-.1-.6-.2-.7-.3-.9-.3-1.8-.7-2.5-1.2-1.2-.8-2.5-1.8-3.8-3.1-1.3-1.3-2.3-2.6-3.1-3.8-.5-.7-.8-1.5-1.2-2.5,0,0-.1-.3-.3-.7-.1-.4-.3-.6-.3-.8,0-.2-.1-.4-.2-.7,0,0,0-.1,0-.2Z"/>
    </g>
  </g>
</svg>