<?xml version="1.0" encoding="UTF-8"?>
<svg xmlns="http://www.w3.org/2000/svg" version="1.1" viewBox="0 0 32 32">
  <defs>
    <style>
      .cls-1 {
        fill: #000;
      }

      .cls-1, .cls-2, .cls-3, .cls-4 {
        stroke-width: 0px;
      }

      .cls-2 {
        fill: #69c9d0;
      }

      .cls-3 {
        fill: #ee1d52;
      }

      .cls-4 {
        fill: #fff;
      }
    </style>
  </defs>
  <g id="Layer_2" data-name="Layer 2">
    <rect class="cls-4" width="32" height="32"/>
  </g>
  <g id="Layer_1" data-name="Layer 1">
    <path class="cls-3" d="M8.5,19.8c.2-1.3.7-2,1.7-2.8,1.4-1,3.2-.4,3.2-.4v-3.4c.4,0,.9,0,1.3,0v4.3s-1.8-.6-3.2.4c-1,.7-1.5,1.5-1.7,2.8,0,.7.1,1.6.7,2.4-.2,0-.3-.2-.5-.3-1.3-.9-1.6-2.2-1.6-3.2ZM22,7c-1-1.1-1.4-2.2-1.5-2.9h1.2s-.2,2,1.6,4h0c-.5-.3-.9-.6-1.3-1ZM28,10v4.3s-1.6,0-2.7-.4c-1.6-.4-2.7-1.1-2.7-1.1,0,0-.7-.5-.8-.5v8.8c0,.5-.1,1.7-.5,2.7-.5,1.3-1.4,2.2-1.5,2.4,0,0-1,1.2-2.8,2-1.6.7-3,.7-3.4.7,0,0-2.4,0-4.6-1.3-.5-.3-.9-.7-1.3-1.1h0c2.2,1.4,4.6,1.3,4.6,1.3.4,0,1.8,0,3.4-.7,1.8-.8,2.8-2,2.8-2,.1-.2,1-1.1,1.5-2.4.4-1,.5-2.2.5-2.7v-8.8c0,0,.8.5.8.5,0,0,1,.6,2.7,1.1,1.2.3,2.7.4,2.7.4v-3.3c.5.1,1,.2,1.3.1Z"/>
    <path class="cls-1" d="M26.7,9.9v3.3s-1.6,0-2.7-.4c-1.6-.4-2.7-1.1-2.7-1.1,0,0-.7-.5-.8-.5v8.8c0,.5-.1,1.7-.5,2.7-.5,1.3-1.4,2.2-1.5,2.4,0,0-1,1.2-2.8,2-1.6.7-3,.7-3.4.7,0,0-2.4,0-4.6-1.3h0c-.2-.2-.4-.5-.6-.7-.7-.8-1.1-1.8-1.2-2.1,0,0,0,0,0,0-.2-.5-.5-1.7-.5-2.8,0-2,.8-3.3,1-3.6.5-.9,1.2-1.6,1.9-2.3.7-.6,1.5-1,2.3-1.3.9-.4,1.9-.6,2.8-.6v3.4s-1.8-.6-3.2.4c-1,.7-1.5,1.5-1.7,2.8,0,1,.2,2.3,1.6,3.2.2,0,.3.2.5.3.2.3.5.6.8.8,1.3.8,2.4.9,3.8.3.9-.4,1.6-1.2,2-2.1.2-.6.2-1.1.2-1.7V4h3.3c.1.8.5,1.9,1.5,2.9.4.4.8.8,1.3,1.1.1.1.9.9,1.8,1.3.5.2,1,.4,1.5.5Z"/>
    <g>
      <path class="cls-2" d="M4.5,22.8h0s0,.2,0,.2c0,0,0-.1,0-.2Z"/>
      <path class="cls-2" d="M10.5,13.8c-.8.3-1.6.7-2.3,1.3-.8.6-1.4,1.4-1.9,2.3-.2.3-.9,1.6-1,3.6,0,1.2.3,2.3.5,2.8,0,0,0,0,0,0,.1.3.5,1.3,1.2,2.1.2.2.4.5.6.7-.7-.5-1.4-1.1-1.9-1.7-.7-.8-1.1-1.8-1.2-2.1,0,0,0,0,0,0h0c-.2-.5-.5-1.7-.5-2.8,0-2,.8-3.3,1-3.6.5-.9,1.2-1.6,1.9-2.3.7-.6,1.5-1,2.3-1.3.5-.2,1.1-.4,1.6-.5.8-.1,1.7-.2,2.5,0v1c-1,0-1.9.2-2.8.6Z"/>
      <path class="cls-2" d="M20.5,4h-3.3v16.6c0,.6,0,1.1-.2,1.7-.3.9-1,1.7-2,2.1-1.4.5-2.5.5-3.8-.3-.3-.2-.6-.5-.8-.8,1.1.6,2.1.6,3.3,0,.9-.4,1.6-1.2,2-2.1.2-.6.2-1.1.2-1.7V3h4.5s0,.4,0,1ZM26.7,9v.9c-.5-.1-1-.3-1.5-.5-.9-.4-1.7-1.2-1.8-1.3.2.1.3.2.5.3,1.1.5,2.3.7,2.8.7Z"/>
    </g>
  </g>
</svg>