<svg fill="none" height="92" viewBox="0 0 92 92" width="92" xmlns="http://www.w3.org/2000/svg"><path d="m0 0h91.5618v91.5618h-91.5618z" fill="#8755a7"/><g fill="#fff"><path d="m35.0952 64.4983c0-.7675 0-1.535 0-2.3025.0054-.0314.0043-.0636-.0033-.0945s-.0215-.06-.0409-.0854-.0438-.0466-.0718-.0622c-.0279-.0157-.0589-.0255-.0908-.0288-1.9199-.5404-3.6919-1.5032-5.184-2.8165-1.0872-.98-1.9924-2.1413-2.6744-3.4313-.9613-1.8633-1.601-3.8729-1.8927-5.9455-.3614-2.5999-.487-5.2267-.3751-7.8488.0246-1.2224.0876-2.431.2279-3.6535.2235-2.323.815-4.5966 1.7525-6.7374 1.1576-2.6321 3.2578-4.7463 5.8955-5.9351 1.7968-.8147 3.6871-1.4095 5.6292-1.7712 1.9044-.3574 3.8326-.5768 5.7693-.6564 1.7457-.0611 3.4934-.0356 5.2366.0764 2.4948.1044 4.9671.5138 7.3606 1.219 1.7746.5069 3.4628 1.2736 5.0088 2.2748 1.5063 1.0245 2.7245 2.4121 3.5401 4.032.9588 1.892 1.6106 3.9219 1.9313 6.015.2083 1.2427.3453 2.4961.4101 3.7542.0911 1.5593.0806 3.1256.021 4.678s-.1928 3.0596-.3855 4.5807c-.2437 2.2831-.952 4.4936-2.0821 6.4978-1.4709 2.5355-3.8272 4.4501-6.6245 5.383-1.9128.6637-3.8878 1.136-5.8956 1.41-1.4686.2014-2.9407.3473-4.4199.4063-1.1321.0521-2.2642.0382-3.3964.0209-.6414 0-1.2793-.0626-1.9173-.1181-.0626-.0117-.1273-.0048-.1859.02-.0587.0247-.1086.0661-.1435.1189-1.2899 1.535-2.6288 3.0284-3.9783 4.5147-.2458.2712-.5304.5052-.8447.6946-.2063.1341-.4416.2183-.6868.2457s-.4935-.0026-.7248-.0878-.4391-.2231-.6067-.4025c-.1676-.1795-.2903-.3955-.3581-.6305-.1336-.4178-.1999-.8538-.1963-1.292-.0035-.6876-.0035-1.3648-.0035-2.042zm1.5597 2.9137.1648-.1528 2.9267-3.2193c1.1263-1.2387 2.2514-2.4785 3.3754-3.7195.0552-.0757.1298-.1355.216-.1734.0862-.0378.181-.0523.2747-.0419.382.0382.7641.0521 1.1497.0555 1.3319 0 2.6638 0 3.9957-.0937 1.2093-.0938 2.415-.2397 3.6138-.4272 1.2906-.2226 2.5683-.5136 3.8275-.8717 2.8041-.7467 4.9737-2.3442 6.3372-4.9315.8049-1.5907 1.3098-3.3138 1.4896-5.0843.2131-1.6688.3406-3.3472.3821-5.0287.0621-2.1124-.0835-4.2258-.4347-6.3103-.2435-1.5102-.6817-2.9832-1.3038-4.3828-.7922-1.7364-1.9138-3.1742-3.6418-4.098-2.6498-1.4169-5.517-2.049-8.4718-2.372-.8377-.0903-1.6754-.1389-2.5166-.1701-1.7225-.088-3.4486-.0787-5.17.0277-1.238.0911-2.4693.2558-3.6873.4932-1.7913.3235-3.5241.9087-5.142 1.7364-.9379.4696-1.7888 1.0931-2.5166 1.8441-1.1796 1.3063-2.0448 2.8606-2.5307 4.5461-.5763 1.9629-.8909 3.992-.9358 6.0358-.1128 2.0438-.087 4.0928.0771 6.1332.1021 1.2142.3073 2.4178.6134 3.5979.4554 1.839 1.3389 3.5469 2.5797 4.987 1.3397 1.4693 3.0711 2.5336 4.9947 3.0701.2419.0729.3506.1563.3506.4271-.0211 1.0002 0 2.0004 0 3.0006z"/><path d="m34.2021 36.3926c-.0245-.7606.3926-1.3128.8973-1.8094.6657-.6318 1.3991-1.1897 2.1872-1.6635.3593-.2196.7866-.3033 1.2033-.2356.4166.0676.7946.282 1.0645.6037.9535.9931 1.8069 2.076 2.5481 3.2333.3671.5205.6443 1.098.8202 1.7086.0703.2383.0749.4909.0133.7316-.0617.2406-.1873.4605-.3638.6367-.4043.3933-.8353.7588-1.2898 1.094-.2291.1809-.3994.4245-.4897.7005-.0904.276-.0969.5723-.0186.8519.2807 1.313.9169 2.5255 1.8402 3.5076 1.1219 1.3571 2.5675 2.4158 4.2061 3.0805.4026.2051.8639.2676 1.3074.1771.2428-.0657.4586-.2054.6169-.3994.2453-.3091.5117-.6078.7325-.9377.2864-.4115.7237-.696 1.2187-.7926.495-.0967 1.0086.0021 1.4311.2751 1.1882.6831 2.3099 1.4736 3.3509 2.3616.2453.2084.5012.4098.7466.6217.2903.2193.4999.527.5968.8758s.0756.7194-.0606 1.0551c-.2165.5644-.5322 1.0865-.9323 1.5419-.4973.6848-1.1306 1.2616-1.8612 1.6948-.3492.2032-.7416.3226-1.1458.3485-.4041.0259-.8088-.0423-1.1816-.1991-2.8358-1.1313-5.4856-2.6752-7.8618-4.5808-2.3242-1.8958-4.3554-4.1189-6.0288-6.5985-1.408-2.0527-2.5281-4.2853-3.3298-6.6367-.0853-.2844-.1555-.573-.2103-.8647-.0156-.1268-.0179-.2548-.007-.382z"/><path d="m46.3033 32.6973c2.3727.0435 4.6547.9106 6.4482 2.4503s2.9847 3.6542 3.366 5.9749c.1535.8438.2356 1.6988.2454 2.5561 0 .2014-.0526.3473-.2699.3681s-.2734-.1632-.2734-.3473c.0326-1.7341-.3267-3.4535-1.0515-5.0322-.6104-1.2972-1.5146-2.4375-2.6423-3.3319-1.1277-.8945-2.4485-1.5192-3.8596-1.8254-.7461-.1711-1.509-.2596-2.2748-.2639-.0746.0013-.149-.0081-.2208-.0278-.0612-.0171-.1133-.057-.1454-.1115-.032-.0544-.0415-.119-.0264-.1802.0005-.029.0067-.0577.0185-.0843.0117-.0266.0287-.0506.0499-.0707.0212-.02.0462-.0357.0736-.046.0274-.0104.0566-.0152.0858-.0143.1578-.0209.319-.0139.4767-.0139z"/><path d="m53.0695 42.1157c-.0118-.9649-.2516-1.9135-.7002-2.7699s-1.0935-1.5968-1.883-2.1616c-.9215-.6414-1.9927-1.0394-3.1125-1.1565-.1893-.0243-.3786-.0347-.5714-.0556-.1927-.0208-.3084-.1007-.2909-.2952.0175-.1944.1402-.2639.3505-.25 3.1055.1875 5.7483 1.9274 6.5615 5.1676.1487.6248.2229 1.2647.2208 1.9067v.1736c0 .1736-.1121.2883-.2839.2848-.0381-.0013-.0755-.0102-.11-.0263s-.0653-.039-.0905-.0673c-.0253-.0282-.0445-.0613-.0564-.0972-.0119-.0358-.0163-.0737-.013-.1114-.028-.1632-.021-.3299-.021-.5417z"/><path d="m47.6285 38.2467c1.7035.1146 2.8917.9412 3.2177 2.7367.0395.23.0676.4618.0841.6945 0 .1876-.0421.3473-.2488.3473-.2068 0-.2769-.1389-.284-.3473-.0019-.6882-.2159-1.3595-.6133-1.9239-.4177-.5113-1.0174-.8444-1.6755-.9308-.1471-.0272-.2957-.0458-.4451-.0555-.2454 0-.3821-.1216-.3505-.3091.0315-.1876.1787-.2223.3154-.2119z"/></g></svg>